<svg t="1695146744310" class="icon" viewBox="0 0 1024 1024" version="1.1" xmlns="http://www.w3.org/2000/svg" p-id="17081" width="32" height="32"><path d="M907.636364 349.090909c-64 0-116.363636-52.363636-116.363637-116.363636 0-17.780364 4.165818-43.729455 11.380364-71.819637A486.632727 486.632727 0 0 0 488.727273 46.545455C218.810182 46.545455 0 265.355636 0 535.272727s218.810182 488.727273 488.727273 488.727273 488.727273-218.810182 488.727272-488.727273c0-67.770182-13.824-132.282182-38.74909-190.952727-9.960727 2.792727-20.247273 4.770909-31.069091 4.770909z" fill="#FBD971" p-id="17082"></path><path d="M372.363636 442.181818a23.272727 23.272727 0 0 1-23.272727-23.272727c0-38.493091-31.325091-69.818182-69.818182-69.818182s-69.818182 31.325091-69.818182 69.818182a23.272727 23.272727 0 1 1-46.545454 0c0-64.162909 52.200727-116.363636 116.363636-116.363636s116.363636 52.200727 116.363637 116.363636a23.272727 23.272727 0 0 1-23.272728 23.272727zM791.272727 442.181818a23.272727 23.272727 0 0 1-23.272727-23.272727c0-38.493091-31.325091-69.818182-69.818182-69.818182s-69.818182 31.325091-69.818182 69.818182a23.272727 23.272727 0 1 1-46.545454 0c0-64.162909 52.200727-116.363636 116.363636-116.363636s116.363636 52.200727 116.363637 116.363636a23.272727 23.272727 0 0 1-23.272728 23.272727z" fill="#F29C1F" p-id="17083"></path><path d="M907.636364 349.090909c-64 0-116.363636-52.363636-116.363637-116.363636s52.363636-232.727273 116.363637-232.727273 116.363636 168.727273 116.363636 232.727273-52.363636 116.363636-116.363636 116.363636z" fill="#48A0DC" p-id="17084"></path><path d="M744.727273 605.090909H232.727273c0 141.381818 114.618182 256 256 256s256-114.618182 256-256z" fill="#FFFFFF" p-id="17085"></path><path d="M698.181818 698.181818h-46.545454v-93.090909a23.272727 23.272727 0 1 0-46.545455 0v93.090909h-46.545454v-93.090909a23.272727 23.272727 0 1 0-46.545455 0v93.090909h-46.545455v-93.090909a23.272727 23.272727 0 1 0-46.545454 0v93.090909h-46.545455v-93.090909a23.272727 23.272727 0 1 0-46.545454 0v93.090909h-46.545455a23.272727 23.272727 0 1 0 0 46.545455h46.545455v69.818182a23.272727 23.272727 0 1 0 46.545454 0v-69.818182h46.545455v93.090909a23.272727 23.272727 0 1 0 46.545454 0v-93.090909h46.545455v93.090909a23.272727 23.272727 0 1 0 46.545455 0v-93.090909h46.545454v69.818182a23.272727 23.272727 0 1 0 46.545455 0v-69.818182h46.545454a23.272727 23.272727 0 1 0 0-46.545455z" fill="#ECF0F0" p-id="17086"></path><path d="M488.727273 884.363636c-153.995636 0-279.272727-125.277091-279.272728-279.272727a23.272727 23.272727 0 0 1 23.272728-23.272727h512a23.272727 23.272727 0 0 1 23.272727 23.272727c0 153.995636-125.277091 279.272727-279.272727 279.272727z m-231.563637-256c11.706182 117.434182 111.080727 209.454545 231.563637 209.454546s219.857455-92.020364 231.563636-209.454546h-463.127273z" fill="#F0C419" p-id="17087"></path></svg>
